<svg xmlns="http://www.w3.org/2000/svg" width="16" height="16" viewBox="0 0 16 16" preserveAspectRatio="none slice"><path d="m15.722277 8.07129a7.816089 7.928713 0 1 1 -15.632178 0 7.816089 7.928713 0 1 1 15.632178 0" transform="translate(.09)" fill="#f00" fill-rule="evenodd" fill-opacity=".75"/><g fill="#fff"><path d="m7.352 10.322c.396 0 .793 0 1.189 0 0 .496 0 .992 0 1.488-.396 0-.793 0-1.189 0 0-.496 0-.992 0-1.488m0-7.26c.396 0 .793 0 1.189 0-.009 1.367.019 2.735-.015 4.102-.034.609-.068 1.218-.102 1.827-.316 0-.633 0-.949 0-.056-1.014-.143-2.028-.123-3.045 0-.961 0-1.923 0-2.884" transform="matrix(2.8 0 0 1.54-14.303-3.43)"/></g></svg>